STARTFONT 2.1
COMMENT
COMMENT Converted from OpenType font "Tuffy.otf" by "otf2bdf 3.0".
COMMENT
FONT -FreeType-Tuffy-Medium-R-Normal--22-160-100-100-P-91-ISO10646-1
SIZE 16 100 100
FONTBOUNDINGBOX 18 27 -1 -5
STARTPROPERTIES 19
FOUNDRY "FreeType"
FAMILY_NAME "Tuffy"
WEIGHT_NAME "Medium"
SLANT "R"
SETWIDTH_NAME "Normal"
ADD_STYLE_NAME ""
PIXEL_SIZE 22
POINT_SIZE 160
RESOLUTION_X 100
RESOLUTION_Y 100
SPACING "P"
AVERAGE_WIDTH 91
CHARSET_REGISTRY "ISO10646"
CHARSET_ENCODING "1"
FONT_ASCENT 21
FONT_DESCENT 4
COPYRIGHT "Created by Thatcher Ulrich (http://tulrich.com) with FontForge 1.0 (http://fontforge.sf.net)    This font, including hint instructions, has been donated to the Public Domain.  Do whatever you want with it.  "
_OTF_FONTFILE "Tuffy.otf"
_OTF_PSNAME "Tuffy"
ENDPROPERTIES
CHARS 194
STARTCHAR 0020
ENCODING 32
SWIDTH 315 0
DWIDTH 7 0
BBX 0 0 0 0
BITMAP
ENDCHAR
STARTCHAR 0021
ENCODING 33
SWIDTH 225 0
DWIDTH 5 0
BBX 2 16 1 0
BITMAP
C0
C0
C0
C0
C0
40
40
40
40
40
40
40
00
00
C0
C0
ENDCHAR
STARTCHAR 0022
ENCODING 34
SWIDTH 315 0
DWIDTH 7 0
BBX 5 6 1 11
BITMAP
48
C8
C8
48
48
48
ENDCHAR
STARTCHAR 0023
ENCODING 35
SWIDTH 765 0
DWIDTH 17 0
BBX 15 14 1 1
BITMAP
0C60
0C60
0C60
0C60
FFFE
0C60
0C60
0C60
0C60
FFFE
FFFE
0C60
0C60
0C60
ENDCHAR
STARTCHAR 0024
ENCODING 36
SWIDTH 495 0
DWIDTH 11 0
BBX 10 19 1 -2
BITMAP
0800
0800
3E00
6B80
C980
C800
C800
C800
7800
1F00
0B80
0980
08C0
88C0
C980
EB80
7F00
0800
0800
ENDCHAR
STARTCHAR 0025
ENCODING 37
SWIDTH 675 0
DWIDTH 15 0
BBX 13 14 1 1
BITMAP
3000
7860
CC40
C4C0
CD80
7900
0300
0200
0670
0CD8
0988
1988
10D8
3070
ENDCHAR
STARTCHAR 0026
ENCODING 38
SWIDTH 585 0
DWIDTH 13 0
BBX 12 16 1 0
BITMAP
1F00
3380
6080
6000
6000
6000
3C00
3C00
6000
C000
C3F0
C3F0
C0C0
40C0
7380
3F00
ENDCHAR
STARTCHAR 0027
ENCODING 39
SWIDTH 180 0
DWIDTH 4 0
BBX 2 6 1 11
BITMAP
40
C0
C0
40
40
40
ENDCHAR
STARTCHAR 0028
ENCODING 40
SWIDTH 270 0
DWIDTH 6 0
BBX 5 18 0 -1
BITMAP
18
30
30
60
60
60
40
40
C0
C0
40
40
60
60
60
30
30
18
ENDCHAR
STARTCHAR 0029
ENCODING 41
SWIDTH 270 0
DWIDTH 6 0
BBX 4 18 1 -1
BITMAP
C0
60
60
20
30
30
10
10
10
10
10
10
30
30
30
60
60
C0
ENDCHAR
STARTCHAR 002A
ENCODING 42
SWIDTH 450 0
DWIDTH 10 0
BBX 10 8 0 3
BITMAP
3300
1200
1E00
7F80
FFC0
1E00
1200
3300
ENDCHAR
STARTCHAR 002B
ENCODING 43
SWIDTH 450 0
DWIDTH 10 0
BBX 8 8 1 3
BITMAP
18
18
18
FF
FF
18
18
18
ENDCHAR
STARTCHAR 002C
ENCODING 44
SWIDTH 180 0
DWIDTH 4 0
BBX 2 4 1 -2
BITMAP
C0
C0
40
40
ENDCHAR
STARTCHAR 002D
ENCODING 45
SWIDTH 405 0
DWIDTH 9 0
BBX 8 2 1 6
BITMAP
FF
FF
ENDCHAR
STARTCHAR 002E
ENCODING 46
SWIDTH 180 0
DWIDTH 4 0
BBX 2 2 1 0
BITMAP
C0
C0
ENDCHAR
STARTCHAR 002F
ENCODING 47
SWIDTH 405 0
DWIDTH 9 0
BBX 9 17 0 0
BITMAP
0180
0180
0300
0300
0200
0600
0400
0C00
0800
1800
1000
3000
3000
6000
6000
C000
C000
ENDCHAR
STARTCHAR 0030
ENCODING 48
SWIDTH 540 0
DWIDTH 12 0
BBX 10 16 1 0
BITMAP
1F00
3380
6180
60C0
40C0
C0C0
C040
C040
C040
C040
C0C0
C0C0
60C0
6180
3380
1F00
ENDCHAR
STARTCHAR 0031
ENCODING 49
SWIDTH 540 0
DWIDTH 12 0
BBX 3 16 5 0
BITMAP
20
60
E0
60
60
60
60
60
60
60
60
60
60
60
60
60
ENDCHAR
STARTCHAR 0032
ENCODING 50
SWIDTH 540 0
DWIDTH 12 0
BBX 10 16 1 0
BITMAP
1F00
7380
6180
40C0
00C0
00C0
0180
0180
0700
0C00
1800
3000
6000
4000
FFC0
FFC0
ENDCHAR
STARTCHAR 0033
ENCODING 51
SWIDTH 540 0
DWIDTH 12 0
BBX 10 16 1 0
BITMAP
1F00
3380
2180
0080
0080
0180
0380
0F00
0180
00C0
00C0
0040
00C0
C0C0
7380
3F00
ENDCHAR
STARTCHAR 0034
ENCODING 52
SWIDTH 540 0
DWIDTH 12 0
BBX 10 16 1 0
BITMAP
0300
0300
0700
0500
0D00
1900
1900
3100
2100
6100
7FC0
FFC0
0100
0100
0100
0100
ENDCHAR
STARTCHAR 0035
ENCODING 53
SWIDTH 540 0
DWIDTH 12 0
BBX 10 16 1 0
BITMAP
3F80
3F80
2000
2000
2000
6000
7F00
7180
00C0
00C0
0040
0040
C0C0
60C0
3180
1F00
ENDCHAR
STARTCHAR 0036
ENCODING 54
SWIDTH 540 0
DWIDTH 12 0
BBX 10 16 1 0
BITMAP
0200
0600
0400
0C00
1800
1800
3000
3F00
7380
60C0
C0C0
C040
C0C0
60C0
7380
3F00
ENDCHAR
STARTCHAR 0037
ENCODING 55
SWIDTH 540 0
DWIDTH 12 0
BBX 11 16 1 0
BITMAP
FFE0
FFC0
00C0
0080
0180
0180
0300
0300
0300
0600
0600
0C00
0C00
0C00
1800
1800
ENDCHAR
STARTCHAR 0038
ENCODING 56
SWIDTH 540 0
DWIDTH 12 0
BBX 11 16 1 0
BITMAP
1F00
3180
60C0
60C0
60C0
6080
3F80
3F00
6180
40C0
C060
C060
C040
60C0
7180
3F00
ENDCHAR
STARTCHAR 0039
ENCODING 57
SWIDTH 540 0
DWIDTH 12 0
BBX 9 16 2 0
BITMAP
3E00
7700
C180
8180
8080
8080
C180
6380
3F00
0300
0600
0400
0C00
0800
1800
3000
ENDCHAR
STARTCHAR 003A
ENCODING 58
SWIDTH 225 0
DWIDTH 5 0
BBX 2 10 1 0
BITMAP
C0
C0
00
00
00
00
00
00
C0
C0
ENDCHAR
STARTCHAR 003B
ENCODING 59
SWIDTH 225 0
DWIDTH 5 0
BBX 3 12 1 -2
BITMAP
C0
C0
00
00
00
00
00
00
C0
E0
40
40
ENDCHAR
STARTCHAR 003C
ENCODING 60
SWIDTH 405 0
DWIDTH 9 0
BBX 7 13 1 0
BITMAP
06
0C
18
30
60
E0
C0
60
30
18
0C
0E
06
ENDCHAR
STARTCHAR 003D
ENCODING 61
SWIDTH 450 0
DWIDTH 10 0
BBX 8 5 1 4
BITMAP
FF
00
00
00
FF
ENDCHAR
STARTCHAR 003E
ENCODING 62
SWIDTH 405 0
DWIDTH 9 0
BBX 7 13 1 0
BITMAP
E0
30
38
18
0C
06
06
0E
0C
18
30
60
C0
ENDCHAR
STARTCHAR 003F
ENCODING 63
SWIDTH 495 0
DWIDTH 11 0
BBX 9 16 1 0
BITMAP
3E00
6300
C180
8180
0180
0180
0300
0700
0C00
0800
1800
1800
0000
0000
1C00
1C00
ENDCHAR
STARTCHAR 0040
ENCODING 64
SWIDTH 810 0
DWIDTH 18 0
BBX 17 16 0 0
BITMAP
07F000
0E1C00
180600
300300
60C100
43E180
463180
C41080
C41180
463900
43FF00
61C000
200000
300000
1C1800
07F000
ENDCHAR
STARTCHAR 0041
ENCODING 65
SWIDTH 630 0
DWIDTH 14 0
BBX 12 16 1 0
BITMAP
0600
0600
0700
0F00
0D00
0980
1980
1880
30C0
3FC0
3FE0
6060
6060
6030
C030
C030
ENDCHAR
STARTCHAR 0042
ENCODING 66
SWIDTH 585 0
DWIDTH 13 0
BBX 11 16 1 0
BITMAP
FE00
FF80
C1C0
C0C0
C0C0
C0C0
C180
FE00
C1C0
C0C0
C060
C060
C060
C0C0
FFC0
FF00
ENDCHAR
STARTCHAR 0043
ENCODING 67
SWIDTH 585 0
DWIDTH 13 0
BBX 11 16 1 0
BITMAP
0F80
38E0
3060
6000
6000
C000
C000
C000
C000
C000
C000
4000
6000
7060
38E0
1FC0
ENDCHAR
STARTCHAR 0044
ENCODING 68
SWIDTH 585 0
DWIDTH 13 0
BBX 11 16 1 0
BITMAP
FE00
FF80
C1C0
C0C0
C060
C060
C020
C020
C020
C020
C060
C060
C060
C0C0
FF80
FF00
ENDCHAR
STARTCHAR 0045
ENCODING 69
SWIDTH 540 0
DWIDTH 12 0
BBX 10 16 1 0
BITMAP
FFC0
FFC0
C000
C000
C000
C000
C000
FFC0
FFC0
C000
C000
C000
C000
C000
FFC0
FFC0
ENDCHAR
STARTCHAR 0046
ENCODING 70
SWIDTH 540 0
DWIDTH 12 0
BBX 10 16 1 0
BITMAP
FFC0
FFC0
C000
C000
C000
C000
C000
FFC0
FFC0
C000
C000
C000
C000
C000
C000
C000
ENDCHAR
STARTCHAR 0047
ENCODING 71
SWIDTH 675 0
DWIDTH 15 0
BBX 12 16 1 0
BITMAP
0FC0
18E0
3060
6000
6000
C000
C000
C000
C3F0
C3F0
C010
6030
6030
3020
38E0
0FC0
ENDCHAR
STARTCHAR 0048
ENCODING 72
SWIDTH 585 0
DWIDTH 13 0
BBX 11 16 1 0
BITMAP
C060
C060
C060
C060
C060
C060
C060
FFE0
FFE0
C060
C060
C060
C060
C060
C060
C060
ENDCHAR
STARTCHAR 0049
ENCODING 73
SWIDTH 225 0
DWIDTH 5 0
BBX 1 16 2 0
BITMAP
80
80
80
80
80
80
80
80
80
80
80
80
80
80
80
80
ENDCHAR
STARTCHAR 004A
ENCODING 74
SWIDTH 540 0
DWIDTH 12 0
BBX 10 16 1 0
BITMAP
00C0
00C0
00C0
00C0
00C0
00C0
00C0
00C0
00C0
00C0
C0C0
C0C0
40C0
6180
3380
1F00
ENDCHAR
STARTCHAR 004B
ENCODING 75
SWIDTH 585 0
DWIDTH 13 0
BBX 12 16 1 0
BITMAP
C030
C060
C0C0
C180
C300
C600
CC00
D800
FC00
E600
C300
C180
C180
C0C0
C060
C030
ENDCHAR
STARTCHAR 004C
ENCODING 76
SWIDTH 540 0
DWIDTH 12 0
BBX 10 16 1 0
BITMAP
C000
C000
C000
C000
C000
C000
C000
C000
C000
C000
C000
C000
C000
C000
FFC0
FFC0
ENDCHAR
STARTCHAR 004D
ENCODING 77
SWIDTH 765 0
DWIDTH 17 0
BBX 15 16 1 0
BITMAP
E006
E00E
E00E
F01E
D01E
D816
D836
C836
CC26
CC66
C446
C6C6
C6C6
C386
C386
C386
ENDCHAR
STARTCHAR 004E
ENCODING 78
SWIDTH 630 0
DWIDTH 14 0
BBX 12 16 1 0
BITMAP
C030
E030
E030
F030
D830
C830
CC30
C630
C630
C330
C1B0
C1B0
C0F0
C070
C070
C030
ENDCHAR
STARTCHAR 004F
ENCODING 79
SWIDTH 630 0
DWIDTH 14 0
BBX 13 16 1 0
BITMAP
0F80
38C0
3060
6030
4030
C010
C018
C018
C018
C018
C010
4030
6030
6060
38E0
1F80
ENDCHAR
STARTCHAR 0050
ENCODING 80
SWIDTH 540 0
DWIDTH 12 0
BBX 10 16 1 0
BITMAP
FE00
FF80
C1C0
C0C0
C0C0
C0C0
C0C0
C380
FF00
C000
C000
C000
C000
C000
C000
C000
ENDCHAR
STARTCHAR 0051
ENCODING 81
SWIDTH 675 0
DWIDTH 15 0
BBX 13 16 1 0
BITMAP
0F80
38C0
3060
6030
4030
C010
C018
C018
C018
C018
C018
4110
61B0
60E0
38F0
1F98
ENDCHAR
STARTCHAR 0052
ENCODING 82
SWIDTH 540 0
DWIDTH 12 0
BBX 11 16 1 0
BITMAP
FE00
FF80
C1C0
C0C0
C0C0
C0C0
C0C0
C380
FF00
C600
C600
C300
C180
C180
C0C0
C060
ENDCHAR
STARTCHAR 0053
ENCODING 83
SWIDTH 540 0
DWIDTH 12 0
BBX 10 16 1 0
BITMAP
3F00
7380
C0C0
C000
C000
6000
7800
1E00
0780
0180
00C0
00C0
80C0
C0C0
7180
3F00
ENDCHAR
STARTCHAR 0054
ENCODING 84
SWIDTH 585 0
DWIDTH 13 0
BBX 12 16 1 0
BITMAP
FFF0
FFF0
0600
0600
0600
0600
0600
0600
0600
0600
0600
0600
0600
0600
0600
0600
ENDCHAR
STARTCHAR 0055
ENCODING 85
SWIDTH 630 0
DWIDTH 14 0
BBX 12 16 1 0
BITMAP
C030
C030
C030
C030
C030
C030
C030
C030
C030
C030
C030
4020
6060
6060
39C0
1F80
ENDCHAR
STARTCHAR 0056
ENCODING 86
SWIDTH 630 0
DWIDTH 14 0
BBX 12 16 1 0
BITMAP
C030
C020
4060
6060
6060
60C0
30C0
30C0
3080
1180
1980
1900
0B00
0F00
0F00
0600
ENDCHAR
STARTCHAR 0057
ENCODING 87
SWIDTH 765 0
DWIDTH 17 0
BBX 15 16 1 0
BITMAP
C002
C382
C386
C386
42C6
42C6
6644
6644
6444
646C
2C6C
2C2C
2C28
3838
3838
3838
ENDCHAR
STARTCHAR 0058
ENCODING 88
SWIDTH 585 0
DWIDTH 13 0
BBX 11 16 1 0
BITMAP
C060
6060
60C0
3080
1180
1B00
0F00
0E00
0600
0E00
1B00
1980
3180
60C0
6060
C060
ENDCHAR
STARTCHAR 0059
ENCODING 89
SWIDTH 585 0
DWIDTH 13 0
BBX 11 16 1 0
BITMAP
C060
4040
60C0
3180
1100
1B00
0A00
0E00
0400
0400
0400
0400
0400
0400
0400
0400
ENDCHAR
STARTCHAR 005A
ENCODING 90
SWIDTH 630 0
DWIDTH 14 0
BBX 13 16 1 0
BITMAP
FFF0
FFF0
0060
00C0
00C0
0180
0300
0300
0600
0C00
0C00
1800
3000
3000
7FF8
FFF8
ENDCHAR
STARTCHAR 005B
ENCODING 91
SWIDTH 315 0
DWIDTH 7 0
BBX 5 18 1 -1
BITMAP
F8
F8
C0
C0
C0
C0
C0
C0
C0
C0
C0
C0
C0
C0
C0
C0
C0
F8
ENDCHAR
STARTCHAR 005C
ENCODING 92
SWIDTH 405 0
DWIDTH 9 0
BBX 9 17 0 0
BITMAP
C000
C000
6000
6000
3000
3000
1000
1800
0800
0C00
0C00
0600
0600
0300
0300
0180
0180
ENDCHAR
STARTCHAR 005D
ENCODING 93
SWIDTH 315 0
DWIDTH 7 0
BBX 5 18 1 -1
BITMAP
F8
F8
18
18
18
18
18
18
18
18
18
18
18
18
18
18
18
F8
ENDCHAR
STARTCHAR 005E
ENCODING 94
SWIDTH 450 0
DWIDTH 10 0
BBX 8 4 1 12
BITMAP
18
3C
66
C3
ENDCHAR
STARTCHAR 005F
ENCODING 95
SWIDTH 585 0
DWIDTH 13 0
BBX 12 2 1 -3
BITMAP
FFF0
FFF0
ENDCHAR
STARTCHAR 0060
ENCODING 96
SWIDTH 270 0
DWIDTH 6 0
BBX 4 5 1 12
BITMAP
C0
C0
60
30
10
ENDCHAR
STARTCHAR 0061
ENCODING 97
SWIDTH 495 0
DWIDTH 11 0
BBX 8 12 1 0
BITMAP
3C
7E
03
01
39
7F
C3
C1
C1
C1
E3
7D
ENDCHAR
STARTCHAR 0062
ENCODING 98
SWIDTH 495 0
DWIDTH 11 0
BBX 10 16 1 0
BITMAP
C000
C000
C000
C000
CE00
DF00
E180
C180
C080
C0C0
C0C0
C080
C080
E180
F380
DF00
ENDCHAR
STARTCHAR 0063
ENCODING 99
SWIDTH 450 0
DWIDTH 10 0
BBX 8 12 1 0
BITMAP
1C
3F
61
C0
C0
C0
80
C0
C0
41
63
3E
ENDCHAR
STARTCHAR 0064
ENCODING 100
SWIDTH 495 0
DWIDTH 11 0
BBX 9 16 1 0
BITMAP
0180
0180
0180
0180
3D80
7F80
C380
C180
C180
8180
8180
C180
C180
C180
6380
3D80
ENDCHAR
STARTCHAR 0065
ENCODING 101
SWIDTH 495 0
DWIDTH 11 0
BBX 9 12 1 0
BITMAP
1C00
3F00
6300
C180
C180
FF80
FF80
C000
C000
6100
6300
3E00
ENDCHAR
STARTCHAR 0066
ENCODING 102
SWIDTH 360 0
DWIDTH 8 0
BBX 6 16 1 0
BITMAP
1C
34
30
30
FC
FC
30
30
30
30
30
30
30
30
30
30
ENDCHAR
STARTCHAR 0067
ENCODING 103
SWIDTH 495 0
DWIDTH 11 0
BBX 9 17 1 -5
BITMAP
3D80
7F80
C380
C180
C180
8180
8180
C180
C180
C180
6380
3D80
0180
C180
C100
7F00
1C00
ENDCHAR
STARTCHAR 0068
ENCODING 104
SWIDTH 540 0
DWIDTH 12 0
BBX 9 16 1 0
BITMAP
C000
C000
C000
C000
CE00
FF00
E180
C180
C080
C080
C080
C080
C080
C080
C080
C080
ENDCHAR
STARTCHAR 0069
ENCODING 105
SWIDTH 225 0
DWIDTH 5 0
BBX 2 15 1 0
BITMAP
C0
40
00
40
40
40
40
40
40
40
40
40
40
40
40
ENDCHAR
STARTCHAR 006A
ENCODING 106
SWIDTH 225 0
DWIDTH 5 0
BBX 5 20 -1 -5
BITMAP
18
00
00
18
18
18
18
18
18
18
18
18
18
18
18
18
18
18
F0
40
ENDCHAR
STARTCHAR 006B
ENCODING 107
SWIDTH 450 0
DWIDTH 10 0
BBX 9 16 1 0
BITMAP
C000
C000
C000
C000
C300
C200
C600
CC00
D800
F000
F800
CC00
C600
C600
C300
C180
ENDCHAR
STARTCHAR 006C
ENCODING 108
SWIDTH 225 0
DWIDTH 5 0
BBX 3 16 2 0
BITMAP
80
80
80
80
80
80
80
80
80
80
80
80
80
80
80
E0
ENDCHAR
STARTCHAR 006D
ENCODING 109
SWIDTH 765 0
DWIDTH 17 0
BBX 14 12 1 0
BITMAP
DE38
FF7C
E38C
C384
C104
C104
C104
C104
C104
C104
C104
C104
ENDCHAR
STARTCHAR 006E
ENCODING 110
SWIDTH 540 0
DWIDTH 12 0
BBX 9 12 1 0
BITMAP
CE00
FF00
E180
C180
C080
C080
C080
C080
C080
C080
C080
C080
ENDCHAR
STARTCHAR 006F
ENCODING 111
SWIDTH 495 0
DWIDTH 11 0
BBX 10 12 1 0
BITMAP
1E00
3F00
6180
C180
C080
C0C0
C0C0
C080
C080
4180
6300
3E00
ENDCHAR
STARTCHAR 0070
ENCODING 112
SWIDTH 495 0
DWIDTH 11 0
BBX 10 17 1 -5
BITMAP
CE00
DF00
E180
C180
C080
C0C0
C0C0
C080
C080
E180
F380
DF00
C000
C000
C000
C000
C000
ENDCHAR
STARTCHAR 0071
ENCODING 113
SWIDTH 495 0
DWIDTH 11 0
BBX 10 17 1 -5
BITMAP
3D80
7F80
C380
C180
C180
8180
8180
C180
C180
C180
6380
3D80
0180
0180
0180
00C0
00C0
ENDCHAR
STARTCHAR 0072
ENCODING 114
SWIDTH 315 0
DWIDTH 7 0
BBX 7 12 1 0
BITMAP
CE
FC
E0
C0
C0
C0
C0
C0
C0
C0
C0
C0
ENDCHAR
STARTCHAR 0073
ENCODING 115
SWIDTH 450 0
DWIDTH 10 0
BBX 8 12 1 0
BITMAP
3C
7E
C3
C0
60
78
1E
03
03
43
E3
7E
ENDCHAR
STARTCHAR 0074
ENCODING 116
SWIDTH 360 0
DWIDTH 8 0
BBX 5 14 1 0
BITMAP
20
20
F8
F8
20
20
20
20
20
20
20
20
30
38
ENDCHAR
STARTCHAR 0075
ENCODING 117
SWIDTH 540 0
DWIDTH 12 0
BBX 9 12 1 0
BITMAP
C080
C080
C080
C080
C080
C080
C080
C080
C180
6180
7280
3E80
ENDCHAR
STARTCHAR 0076
ENCODING 118
SWIDTH 495 0
DWIDTH 11 0
BBX 9 12 1 0
BITMAP
C080
C180
4180
6100
6300
2300
3200
3600
1600
1C00
1C00
0C00
ENDCHAR
STARTCHAR 0077
ENCODING 119
SWIDTH 675 0
DWIDTH 15 0
BBX 13 12 1 0
BITMAP
8208
C718
C718
4518
4510
6D90
6CB0
28A0
28A0
38E0
3860
1040
ENDCHAR
STARTCHAR 0078
ENCODING 120
SWIDTH 450 0
DWIDTH 10 0
BBX 8 12 1 0
BITMAP
C3
C3
66
66
3C
18
18
3C
24
66
C3
C3
ENDCHAR
STARTCHAR 0079
ENCODING 121
SWIDTH 540 0
DWIDTH 12 0
BBX 9 17 1 -5
BITMAP
C080
C080
C080
C080
C080
C080
C080
C080
C180
6180
7280
3E80
0080
0180
4180
7F00
1C00
ENDCHAR
STARTCHAR 007A
ENCODING 122
SWIDTH 450 0
DWIDTH 10 0
BBX 9 12 1 0
BITMAP
FF80
FF00
0300
0600
0400
0C00
1800
1800
3000
6000
7F80
FF80
ENDCHAR
STARTCHAR 007B
ENCODING 123
SWIDTH 360 0
DWIDTH 8 0
BBX 5 18 2 -1
BITMAP
18
78
60
60
60
60
40
40
C0
C0
40
40
60
60
60
60
60
38
ENDCHAR
STARTCHAR 007C
ENCODING 124
SWIDTH 180 0
DWIDTH 4 0
BBX 2 16 1 0
BITMAP
C0
C0
C0
C0
C0
C0
C0
C0
C0
C0
C0
C0
C0
C0
C0
C0
ENDCHAR
STARTCHAR 007D
ENCODING 125
SWIDTH 360 0
DWIDTH 8 0
BBX 6 18 1 -1
BITMAP
C0
F0
10
10
10
10
10
18
18
0C
18
10
10
10
10
10
30
E0
ENDCHAR
STARTCHAR 007E
ENCODING 126
SWIDTH 360 0
DWIDTH 8 0
BBX 7 3 1 6
BITMAP
E2
BE
1C
ENDCHAR
STARTCHAR 00A1
ENCODING 161
SWIDTH 135 0
DWIDTH 3 0
BBX 3 16 0 0
BITMAP
40
E0
00
00
40
40
40
40
40
40
40
C0
C0
C0
C0
C0
ENDCHAR
STARTCHAR 00A2
ENCODING 162
SWIDTH 405 0
DWIDTH 9 0
BBX 7 12 1 1
BITMAP
18
18
38
7E
C0
80
80
C0
66
3C
18
18
ENDCHAR
STARTCHAR 00A3
ENCODING 163
SWIDTH 540 0
DWIDTH 12 0
BBX 10 16 1 0
BITMAP
0E00
1F00
1980
1000
1000
1000
1000
3000
FF00
FF00
3000
3000
3000
6000
6040
7FC0
ENDCHAR
STARTCHAR 00A4
ENCODING 164
SWIDTH 405 0
DWIDTH 9 0
BBX 8 8 1 4
BITMAP
DB
FF
46
C2
C2
66
FF
C3
ENDCHAR
STARTCHAR 00A5
ENCODING 165
SWIDTH 540 0
DWIDTH 12 0
BBX 10 15 1 0
BITMAP
C0C0
4080
6180
3100
1200
1E00
7F80
7F80
0C00
0C00
7F80
0C00
0C00
0C00
0C00
ENDCHAR
STARTCHAR 00A6
ENCODING 166
SWIDTH 135 0
DWIDTH 3 0
BBX 2 16 1 0
BITMAP
C0
C0
C0
C0
C0
C0
C0
00
00
C0
C0
C0
C0
C0
C0
C0
ENDCHAR
STARTCHAR 00A7
ENCODING 167
SWIDTH 315 0
DWIDTH 7 0
BBX 7 13 0 1
BITMAP
3C
7E
40
40
F8
4C
66
76
3E
02
06
7C
38
ENDCHAR
STARTCHAR 00A8
ENCODING 168
SWIDTH 405 0
DWIDTH 9 0
BBX 7 2 1 8
BITMAP
C6
C6
ENDCHAR
STARTCHAR 00A9
ENCODING 169
SWIDTH 450 0
DWIDTH 10 0
BBX 10 10 0 3
BITMAP
1E00
3380
6080
5EC0
D040
D040
4EC0
6080
3F00
0C00
ENDCHAR
STARTCHAR 00AB
ENCODING 171
SWIDTH 405 0
DWIDTH 9 0
BBX 7 6 1 6
BITMAP
62
44
8C
8C
44
62
ENDCHAR
STARTCHAR 00AC
ENCODING 172
SWIDTH 495 0
DWIDTH 11 0
BBX 8 4 2 6
BITMAP
FF
FF
03
03
ENDCHAR
STARTCHAR 00AD
ENCODING 173
SWIDTH 450 0
DWIDTH 10 0
BBX 8 2 1 8
BITMAP
FF
FF
ENDCHAR
STARTCHAR 00AE
ENCODING 174
SWIDTH 585 0
DWIDTH 13 0
BBX 11 11 1 3
BITMAP
0E00
3F80
60C0
CE60
8920
8E20
8C20
CA60
4940
60C0
3F00
ENDCHAR
STARTCHAR 00AF
ENCODING 175
SWIDTH 360 0
DWIDTH 8 0
BBX 6 1 1 11
BITMAP
FC
ENDCHAR
STARTCHAR 00B0
ENCODING 176
SWIDTH 270 0
DWIDTH 6 0
BBX 5 6 1 10
BITMAP
20
F8
88
88
98
70
ENDCHAR
STARTCHAR 00B1
ENCODING 177
SWIDTH 495 0
DWIDTH 11 0
BBX 8 11 2 3
BITMAP
10
10
10
FF
FF
10
10
10
00
FE
FE
ENDCHAR
STARTCHAR 00B4
ENCODING 180
SWIDTH 270 0
DWIDTH 6 0
BBX 4 4 1 12
BITMAP
30
20
60
C0
ENDCHAR
STARTCHAR 00B5
ENCODING 181
SWIDTH 495 0
DWIDTH 11 0
BBX 7 13 2 -4
BITMAP
82
82
82
82
82
82
C6
CE
BA
80
80
80
80
ENDCHAR
STARTCHAR 00B6
ENCODING 182
SWIDTH 540 0
DWIDTH 12 0
BBX 10 15 1 0
BITMAP
0FC0
3CC0
6CC0
CCC0
CCC0
CCC0
7CC0
1FC0
0CC0
0CC0
0CC0
0CC0
0CC0
0CC0
0FC0
ENDCHAR
STARTCHAR 00B7
ENCODING 183
SWIDTH 225 0
DWIDTH 5 0
BBX 2 2 2 7
BITMAP
C0
C0
ENDCHAR
STARTCHAR 00B8
ENCODING 184
SWIDTH 225 0
DWIDTH 5 0
BBX 3 4 1 -3
BITMAP
40
60
60
C0
ENDCHAR
STARTCHAR 00BB
ENCODING 187
SWIDTH 450 0
DWIDTH 10 0
BBX 8 6 1 6
BITMAP
C4
66
23
23
62
44
ENDCHAR
STARTCHAR 00BF
ENCODING 191
SWIDTH 450 0
DWIDTH 10 0
BBX 10 16 0 -1
BITMAP
0C00
0C00
0000
0000
0C00
0C00
0C00
1800
3000
6000
C000
C000
C0C0
6180
7F00
1E00
ENDCHAR
STARTCHAR 00C0
ENCODING 192
SWIDTH 630 0
DWIDTH 14 0
BBX 12 21 1 0
BITMAP
1800
1800
0C00
0600
0200
0600
0600
0700
0F00
0D00
0980
1880
18C0
10C0
3FC0
3FE0
6060
6020
6030
C030
C010
ENDCHAR
STARTCHAR 00C1
ENCODING 193
SWIDTH 630 0
DWIDTH 14 0
BBX 12 21 1 0
BITMAP
0080
0180
0300
0200
0400
0600
0600
0700
0F00
0D00
0980
1880
18C0
10C0
3FC0
3FE0
6060
6020
6030
C030
C010
ENDCHAR
STARTCHAR 00C2
ENCODING 194
SWIDTH 630 0
DWIDTH 14 0
BBX 12 21 1 0
BITMAP
0600
0700
0D80
1980
0000
0600
0600
0700
0F00
0D00
0980
1880
18C0
10C0
3FC0
3FE0
6060
6020
6030
C030
C010
ENDCHAR
STARTCHAR 00C3
ENCODING 195
SWIDTH 630 0
DWIDTH 14 0
BBX 12 20 1 0
BITMAP
1C40
17C0
0380
0000
0600
0600
0700
0F00
0D00
0980
1880
18C0
10C0
3FC0
3FE0
6060
6020
6030
C030
C010
ENDCHAR
STARTCHAR 00C4
ENCODING 196
SWIDTH 630 0
DWIDTH 14 0
BBX 12 19 1 0
BITMAP
10C0
18C0
0000
0600
0600
0700
0F00
0D00
0980
1880
18C0
10C0
3FC0
3FE0
6060
6020
6030
C030
C010
ENDCHAR
STARTCHAR 00C5
ENCODING 197
SWIDTH 630 0
DWIDTH 14 0
BBX 12 22 1 0
BITMAP
0600
0F80
1880
1880
0980
0700
0600
0600
0700
0F00
0D00
0980
1880
18C0
10C0
3FC0
3FE0
6060
6020
6030
C030
C010
ENDCHAR
STARTCHAR 00C6
ENCODING 198
SWIDTH 675 0
DWIDTH 15 0
BBX 14 16 1 0
BITMAP
03FC
03FC
0780
0780
0580
0C80
0C80
1FFC
1FFC
1080
3080
3080
6080
6080
C0FC
C0FC
ENDCHAR
STARTCHAR 00C7
ENCODING 199
SWIDTH 585 0
DWIDTH 13 0
BBX 12 20 1 -5
BITMAP
0FC0
1CE0
3020
6000
6000
4000
C000
C000
C000
C000
4000
6000
6020
3030
38E0
0FC0
0000
0300
0300
0600
ENDCHAR
STARTCHAR 00C8
ENCODING 200
SWIDTH 540 0
DWIDTH 12 0
BBX 10 21 1 0
BITMAP
1000
1800
0800
0C00
0400
FFC0
FFC0
C000
C000
C000
C000
C000
FFC0
FFC0
C000
C000
C000
C000
C000
FFC0
FFC0
ENDCHAR
STARTCHAR 00C9
ENCODING 201
SWIDTH 540 0
DWIDTH 12 0
BBX 10 21 1 0
BITMAP
0300
0600
0600
0C00
0800
FFC0
FFC0
C000
C000
C000
C000
C000
FFC0
FFC0
C000
C000
C000
C000
C000
FFC0
FFC0
ENDCHAR
STARTCHAR 00CA
ENCODING 202
SWIDTH 540 0
DWIDTH 12 0
BBX 10 20 1 0
BITMAP
0E00
1B00
3180
0000
FFC0
FFC0
C000
C000
C000
C000
C000
FFC0
FFC0
C000
C000
C000
C000
C000
FFC0
FFC0
ENDCHAR
STARTCHAR 00CB
ENCODING 203
SWIDTH 540 0
DWIDTH 12 0
BBX 10 19 1 0
BITMAP
3180
3180
0000
FFC0
FFC0
C000
C000
C000
C000
C000
FFC0
FFC0
C000
C000
C000
C000
C000
FFC0
FFC0
ENDCHAR
STARTCHAR 00CC
ENCODING 204
SWIDTH 225 0
DWIDTH 5 0
BBX 4 21 -1 0
BITMAP
C0
60
20
30
10
10
10
10
10
10
10
10
10
10
10
10
10
10
10
10
10
ENDCHAR
STARTCHAR 00CD
ENCODING 205
SWIDTH 225 0
DWIDTH 5 0
BBX 4 21 2 0
BITMAP
30
60
40
C0
00
80
80
80
80
80
80
80
80
80
80
80
80
80
80
80
80
ENDCHAR
STARTCHAR 00CE
ENCODING 206
SWIDTH 225 0
DWIDTH 5 0
BBX 7 21 -1 0
BITMAP
10
38
6C
C6
00
10
10
10
10
10
10
10
10
10
10
10
10
10
10
10
10
ENDCHAR
STARTCHAR 00CF
ENCODING 207
SWIDTH 225 0
DWIDTH 5 0
BBX 7 19 -1 0
BITMAP
C6
C6
00
10
10
10
10
10
10
10
10
10
10
10
10
10
10
10
10
ENDCHAR
STARTCHAR 00D0
ENCODING 208
SWIDTH 1935 0
DWIDTH 43 0
BBX 12 16 2 0
BITMAP
3F00
3F80
20C0
2060
2030
2030
2030
FC30
FC10
2030
2030
2030
2060
20E0
3FC0
3F00
ENDCHAR
STARTCHAR 00D1
ENCODING 209
SWIDTH 630 0
DWIDTH 14 0
BBX 12 20 1 0
BITMAP
0C00
1EC0
0380
0000
C030
E030
F030
F030
D830
C830
CC30
C630
C230
C330
C1B0
C1B0
C0F0
C070
C070
C030
ENDCHAR
STARTCHAR 00D2
ENCODING 210
SWIDTH 630 0
DWIDTH 14 0
BBX 13 22 1 0
BITMAP
0800
0C00
0C00
0600
0300
0000
0F80
38C0
3060
6030
4030
C010
C018
C018
C018
C018
C018
4030
6030
3060
38E0
1F80
ENDCHAR
STARTCHAR 00D3
ENCODING 211
SWIDTH 630 0
DWIDTH 14 0
BBX 13 21 1 1
BITMAP
0080
0180
0300
0200
0000
0F80
38C0
3060
6030
4030
C010
C018
C018
C018
C018
C018
4030
6030
3060
38E0
1F80
ENDCHAR
STARTCHAR 00D4
ENCODING 212
SWIDTH 630 0
DWIDTH 14 0
BBX 13 21 1 0
BITMAP
0200
0700
0D80
18C0
0000
0F80
38C0
3060
6030
4030
C010
C018
C018
C018
C018
C018
4030
6030
3060
38E0
1F80
ENDCHAR
STARTCHAR 00D5
ENCODING 213
SWIDTH 630 0
DWIDTH 14 0
BBX 13 20 1 0
BITMAP
1C00
17C0
0180
0000
0F80
38C0
3060
6030
4030
C010
C018
C018
C018
C018
C018
4030
6030
3060
38E0
1F80
ENDCHAR
STARTCHAR 00D6
ENCODING 214
SWIDTH 630 0
DWIDTH 14 0
BBX 13 19 1 0
BITMAP
18C0
18C0
0000
0F80
38C0
3060
6030
4030
C010
C018
C018
C018
C018
C018
4030
6030
3060
38E0
1F80
ENDCHAR
STARTCHAR 00D7
ENCODING 215
SWIDTH 405 0
DWIDTH 9 0
BBX 7 6 1 5
BITMAP
C6
6C
38
38
6C
C6
ENDCHAR
STARTCHAR 00D8
ENCODING 216
SWIDTH 1170 0
DWIDTH 26 0
BBX 12 16 1 0
BITMAP
0FC0
3FC0
30E0
61E0
4130
C330
C230
C610
C610
CC30
CC30
4830
7820
7060
38C0
3F80
ENDCHAR
STARTCHAR 00D9
ENCODING 217
SWIDTH 630 0
DWIDTH 14 0
BBX 12 21 1 0
BITMAP
0800
0C00
0400
0200
0200
C030
C030
C030
C030
C030
C030
C030
C030
C030
C030
C030
4020
6060
6060
39C0
1F80
ENDCHAR
STARTCHAR 00DA
ENCODING 218
SWIDTH 630 0
DWIDTH 14 0
BBX 12 21 1 0
BITMAP
0180
0300
0200
0600
0400
C030
C030
C030
C030
C030
C030
C030
C030
C030
C030
C030
4020
6060
6060
39C0
1F80
ENDCHAR
STARTCHAR 00DB
ENCODING 219
SWIDTH 630 0
DWIDTH 14 0
BBX 12 21 1 0
BITMAP
0600
0F00
1900
1980
0000
C030
C030
C030
C030
C030
C030
C030
C030
C030
C030
C030
4020
6060
6060
39C0
1F80
ENDCHAR
STARTCHAR 00DC
ENCODING 220
SWIDTH 630 0
DWIDTH 14 0
BBX 12 19 1 0
BITMAP
10C0
1080
0000
C030
C030
C030
C030
C030
C030
C030
C030
C030
C030
C030
4020
6060
6060
39C0
1F80
ENDCHAR
STARTCHAR 00DD
ENCODING 221
SWIDTH 585 0
DWIDTH 13 0
BBX 11 21 1 0
BITMAP
0180
0180
0300
0600
0400
C060
6040
60C0
3080
1180
1B00
0A00
0E00
0400
0400
0400
0400
0400
0400
0400
0400
ENDCHAR
STARTCHAR 00DE
ENCODING 222
SWIDTH 630 0
DWIDTH 14 0
BBX 9 16 2 0
BITMAP
8000
8000
8000
8000
FE00
8700
8180
8180
8180
8180
8700
FE00
8000
8000
8000
8000
ENDCHAR
STARTCHAR 00DF
ENCODING 223
SWIDTH 585 0
DWIDTH 13 0
BBX 11 16 1 0
BITMAP
0F80
39C0
6060
6060
4060
C060
C0C0
CF80
CF80
C0C0
C060
C060
C060
C060
C0C0
CF80
ENDCHAR
STARTCHAR 00E0
ENCODING 224
SWIDTH 495 0
DWIDTH 11 0
BBX 9 17 1 0
BITMAP
3000
3000
1800
0C00
0000
3C00
7E00
0300
0100
1900
7F80
C380
C180
C180
C180
6380
7D80
ENDCHAR
STARTCHAR 00E1
ENCODING 225
SWIDTH 495 0
DWIDTH 11 0
BBX 9 17 1 0
BITMAP
0200
0600
0C00
0800
0000
3C00
7E00
0300
0100
1900
7F80
C380
C180
C180
C180
6380
7D80
ENDCHAR
STARTCHAR 00E2
ENCODING 226
SWIDTH 495 0
DWIDTH 11 0
BBX 9 16 1 0
BITMAP
1800
3C00
2600
6300
3C00
7E00
0300
0100
1900
7F80
C380
C180
C180
C180
6380
7D80
ENDCHAR
STARTCHAR 00E3
ENCODING 227
SWIDTH 495 0
DWIDTH 11 0
BBX 9 16 1 0
BITMAP
3000
7900
0F00
0000
3C00
7E00
0300
0100
1900
7F80
C380
C180
C180
C180
6380
7D80
ENDCHAR
STARTCHAR 00E4
ENCODING 228
SWIDTH 495 0
DWIDTH 11 0
BBX 9 15 1 0
BITMAP
6300
6300
0000
3C00
7E00
0300
0100
1900
7F80
C380
C180
C180
C180
6380
7D80
ENDCHAR
STARTCHAR 00E5
ENCODING 229
SWIDTH 495 0
DWIDTH 11 0
BBX 9 18 1 0
BITMAP
0800
3E00
2200
2200
3600
1C00
3C00
7E00
0300
0100
1900
7F80
C380
C180
C180
C180
6380
7D80
ENDCHAR
STARTCHAR 00E6
ENCODING 230
SWIDTH 720 0
DWIDTH 16 0
BBX 14 12 1 0
BITMAP
38F0
7DF8
0718
030C
3B0C
7FFC
C7FC
C300
C300
C300
C798
7CF0
ENDCHAR
STARTCHAR 00E7
ENCODING 231
SWIDTH 495 0
DWIDTH 11 0
BBX 9 16 1 -5
BITMAP
1E00
3F00
6180
C000
C000
C000
C000
C000
C000
4100
7300
3E00
0000
0C00
0C00
1800
ENDCHAR
STARTCHAR 00E8
ENCODING 232
SWIDTH 495 0
DWIDTH 11 0
BBX 9 17 1 0
BITMAP
3000
3000
1800
0C00
0000
1C00
3F00
6100
4180
C180
FF80
FF80
C000
C000
6100
7300
3E00
ENDCHAR
STARTCHAR 00E9
ENCODING 233
SWIDTH 495 0
DWIDTH 11 0
BBX 9 17 1 0
BITMAP
0200
0600
0C00
0800
0000
1C00
3F00
6100
4180
C180
FF80
FF80
C000
C000
6100
7300
3E00
ENDCHAR
STARTCHAR 00EA
ENCODING 234
SWIDTH 495 0
DWIDTH 11 0
BBX 9 16 1 0
BITMAP
1C00
1E00
3300
0300
1C00
3F00
6100
4180
C180
FF80
FF80
C000
C000
6100
7300
3E00
ENDCHAR
STARTCHAR 00EB
ENCODING 235
SWIDTH 495 0
DWIDTH 11 0
BBX 9 15 1 0
BITMAP
6300
6300
0000
1C00
3F00
6100
4180
C180
FF80
FF80
C000
C000
6100
7300
3E00
ENDCHAR
STARTCHAR 00EC
ENCODING 236
SWIDTH 225 0
DWIDTH 5 0
BBX 4 17 -1 0
BITMAP
C0
60
60
30
00
10
10
10
10
10
10
10
10
10
10
10
10
ENDCHAR
STARTCHAR 00ED
ENCODING 237
SWIDTH 225 0
DWIDTH 5 0
BBX 4 17 2 0
BITMAP
30
60
40
C0
80
80
80
80
80
80
80
80
80
80
80
80
80
ENDCHAR
STARTCHAR 00EE
ENCODING 238
SWIDTH 450 0
DWIDTH 10 0
BBX 6 16 2 0
BITMAP
30
78
CC
CC
30
30
30
30
30
30
30
30
30
30
30
30
ENDCHAR
STARTCHAR 00EF
ENCODING 239
SWIDTH 315 0
DWIDTH 7 0
BBX 7 15 0 0
BITMAP
C2
C6
00
18
18
18
18
18
18
18
18
18
18
18
18
ENDCHAR
STARTCHAR 00F0
ENCODING 240
SWIDTH 495 0
DWIDTH 11 0
BBX 9 16 1 1
BITMAP
7300
7E00
1E00
1A00
0300
0180
3D80
6780
C380
C180
C180
C180
C180
C100
6300
3E00
ENDCHAR
STARTCHAR 00F1
ENCODING 241
SWIDTH 495 0
DWIDTH 11 0
BBX 9 16 1 0
BITMAP
3000
7900
4F00
0000
CE00
DF00
E180
E180
C080
C080
C080
C080
C080
C080
C080
C080
ENDCHAR
STARTCHAR 00F2
ENCODING 242
SWIDTH 540 0
DWIDTH 12 0
BBX 10 17 1 0
BITMAP
3000
3000
1800
0C00
0000
1E00
3F00
6180
4080
C0C0
C0C0
C0C0
C0C0
C080
6180
7380
3F00
ENDCHAR
STARTCHAR 00F3
ENCODING 243
SWIDTH 540 0
DWIDTH 12 0
BBX 10 17 1 0
BITMAP
0300
0600
0400
0C00
0000
1E00
3F00
6180
4080
C0C0
C0C0
C0C0
C0C0
C080
6180
7380
3F00
ENDCHAR
STARTCHAR 00F4
ENCODING 244
SWIDTH 540 0
DWIDTH 12 0
BBX 10 16 1 0
BITMAP
0C00
1E00
3600
6300
1E00
3F00
6180
4080
C0C0
C0C0
C0C0
C0C0
C080
6180
7380
3F00
ENDCHAR
STARTCHAR 00F5
ENCODING 245
SWIDTH 540 0
DWIDTH 12 0
BBX 10 15 1 0
BITMAP
3800
4F00
0600
1E00
3F00
6180
4080
C0C0
C0C0
C0C0
C0C0
C080
6180
7380
3F00
ENDCHAR
STARTCHAR 00F6
ENCODING 246
SWIDTH 540 0
DWIDTH 12 0
BBX 10 15 1 0
BITMAP
6300
6300
0000
1E00
3F00
6180
4080
C0C0
C0C0
C0C0
C0C0
C080
6180
7380
3F00
ENDCHAR
STARTCHAR 00F7
ENCODING 247
SWIDTH 450 0
DWIDTH 10 0
BBX 8 10 1 2
BITMAP
18
18
00
00
FF
FF
00
00
18
18
ENDCHAR
STARTCHAR 00F8
ENCODING 248
SWIDTH 495 0
DWIDTH 11 0
BBX 9 12 1 0
BITMAP
1D80
3F00
6300
C780
C780
CD80
C980
D980
F180
6180
6300
FE00
ENDCHAR
STARTCHAR 00F9
ENCODING 249
SWIDTH 495 0
DWIDTH 11 0
BBX 9 17 1 0
BITMAP
2000
3000
1800
0800
0400
C080
C080
C080
C080
C080
C080
C080
C080
4180
6180
7380
3E80
ENDCHAR
STARTCHAR 00FA
ENCODING 250
SWIDTH 540 0
DWIDTH 12 0
BBX 9 17 1 0
BITMAP
0200
0600
0400
0800
0800
C080
C080
C080
C080
C080
C080
C080
C080
4180
6180
7380
3E80
ENDCHAR
STARTCHAR 00FB
ENCODING 251
SWIDTH 540 0
DWIDTH 12 0
BBX 9 17 1 0
BITMAP
0C00
1C00
3600
6300
0000
C080
C080
C080
C080
C080
C080
C080
C080
4180
6180
7380
3E80
ENDCHAR
STARTCHAR 00FC
ENCODING 252
SWIDTH 540 0
DWIDTH 12 0
BBX 9 15 1 0
BITMAP
6300
6300
0000
C080
C080
C080
C080
C080
C080
C080
C080
4180
6180
7380
3E80
ENDCHAR
STARTCHAR 00FD
ENCODING 253
SWIDTH 540 0
DWIDTH 12 0
BBX 9 22 1 -5
BITMAP
0200
0600
0400
0C00
0800
C080
C080
C080
C080
C080
C080
C080
C080
4180
6180
7380
3E80
0080
0080
4180
7F00
1E00
ENDCHAR
STARTCHAR 00FE
ENCODING 254
SWIDTH 495 0
DWIDTH 11 0
BBX 9 16 1 0
BITMAP
C000
C000
DE00
FF00
E100
E180
C180
C180
C180
C180
C180
E180
F300
DE00
C000
C000
ENDCHAR
STARTCHAR 00FF
ENCODING 255
SWIDTH 540 0
DWIDTH 12 0
BBX 9 20 1 -5
BITMAP
6300
6100
0000
C080
C080
C080
C080
C080
C080
C080
C080
4180
6180
7380
3E80
0080
0080
4180
7F00
1E00
ENDCHAR
STARTCHAR 2012
ENCODING 8210
SWIDTH 540 0
DWIDTH 12 0
BBX 8 1 2 6
BITMAP
FF
ENDCHAR
STARTCHAR 2013
ENCODING 8211
SWIDTH 495 0
DWIDTH 11 0
BBX 7 1 2 6
BITMAP
FE
ENDCHAR
STARTCHAR 2014
ENCODING 8212
SWIDTH 630 0
DWIDTH 14 0
BBX 11 1 2 6
BITMAP
FFE0
ENDCHAR
STARTCHAR 2018
ENCODING 8216
SWIDTH 180 0
DWIDTH 4 0
BBX 2 4 1 12
BITMAP
80
80
C0
C0
ENDCHAR
STARTCHAR 2019
ENCODING 8217
SWIDTH 180 0
DWIDTH 4 0
BBX 2 4 1 12
BITMAP
C0
C0
40
40
ENDCHAR
STARTCHAR 201A
ENCODING 8218
SWIDTH 180 0
DWIDTH 4 0
BBX 2 4 1 -2
BITMAP
C0
C0
40
40
ENDCHAR
STARTCHAR 201B
ENCODING 8219
SWIDTH 180 0
DWIDTH 4 0
BBX 2 4 1 12
BITMAP
40
80
C0
C0
ENDCHAR
STARTCHAR 201C
ENCODING 8220
SWIDTH 315 0
DWIDTH 7 0
BBX 6 4 1 12
BITMAP
88
88
DC
CC
ENDCHAR
STARTCHAR 201D
ENCODING 8221
SWIDTH 315 0
DWIDTH 7 0
BBX 6 4 1 12
BITMAP
CC
CC
44
48
ENDCHAR
STARTCHAR 201E
ENCODING 8222
SWIDTH 315 0
DWIDTH 7 0
BBX 6 4 1 -2
BITMAP
EC
CC
44
48
ENDCHAR
STARTCHAR 201F
ENCODING 8223
SWIDTH 315 0
DWIDTH 7 0
BBX 6 4 1 12
BITMAP
48
88
CC
CC
ENDCHAR
STARTCHAR 20AC
ENCODING 8364
SWIDTH 540 0
DWIDTH 12 0
BBX 9 11 1 2
BITMAP
0F00
1F80
3000
7E00
7E00
2000
FE00
3000
1880
1F80
0700
ENDCHAR
ENDFONT
